# xmcd
#
# Track frame offsets:
#	150
#	24150
#	38700
#	60225
#	84975
#	96450
#	119400
#
# Disc length: 1884 seconds
#
# Revision: 1
# Processed by: cddbd v1.5.1PL0 Copyright (c) Steve Scherf et al.
# Submitted via: CDex 1.50Beta5
#
DISCID=4a075a07
DTITLE=HY - Departure
DYEAR=2002
DGENRE=Pop
TTITLE0=ホワイトビーチ
TTITLE1=革命
TTITLE2=ソテツ
TTITLE3=Ocean
TTITLE4=兼久商店
TTITLE5=My Life
TTITLE6=旅立ち
EXTD=
EXTT0=
EXTT1=
EXTT2=
EXTT3=
EXTT4=
EXTT5=
EXTT6=
PLAYORDER=
